<svg width="25" height="24" viewBox="0 0 25 24" fill="none" xmlns="http://www.w3.org/2000/svg">
<path d="M4.18555 4.6875H8.12305V3.75C8.12551 3.20375 8.3436 2.68058 8.72986 2.29432C9.11612 1.90806 9.6393 1.68997 10.1855 1.6875H14.6855C15.2318 1.68997 15.755 1.90806 16.1412 2.29432C16.5275 2.68058 16.7456 3.20375 16.748 3.75V4.6875H20.6855C20.8347 4.6875 20.9778 4.74676 21.0833 4.85225C21.1888 4.95774 21.248 5.10082 21.248 5.25C21.248 5.39918 21.1888 5.54226 21.0833 5.64775C20.9778 5.75324 20.8347 5.8125 20.6855 5.8125H19.748V19.5C19.748 19.8481 19.6098 20.1819 19.3636 20.4281C19.1175 20.6742 18.7836 20.8125 18.4355 20.8125H6.43555C6.08745 20.8125 5.75361 20.6742 5.50747 20.4281C5.26133 20.1819 5.12305 19.8481 5.12305 19.5V5.8125H4.18555C4.03636 5.8125 3.89329 5.75324 3.7878 5.64775C3.68231 5.54226 3.62305 5.39918 3.62305 5.25C3.62305 5.10082 3.68231 4.95774 3.7878 4.85225C3.89329 4.74676 4.03636 4.6875 4.18555 4.6875ZM15.623 3.75C15.623 3.50136 15.5243 3.2629 15.3485 3.08709C15.1726 2.91127 14.9342 2.8125 14.6855 2.8125H10.1855C9.93691 2.8125 9.69845 2.91127 9.52263 3.08709C9.34682 3.2629 9.24805 3.50136 9.24805 3.75V4.6875H15.623V3.75ZM6.24805 19.5C6.24805 19.5497 6.2678 19.5974 6.30296 19.6326C6.33813 19.6677 6.38582 19.6875 6.43555 19.6875H18.4355C18.4853 19.6875 18.533 19.6677 18.5681 19.6326C18.6033 19.5974 18.623 19.5497 18.623 19.5V5.8125H6.24805V19.5ZM14.123 9.75V15.75C14.123 15.8992 14.1823 16.0423 14.2878 16.1477C14.3933 16.2532 14.5364 16.3125 14.6855 16.3125C14.8347 16.3125 14.9778 16.2532 15.0833 16.1477C15.1888 16.0423 15.248 15.8992 15.248 15.75V9.75C15.248 9.60082 15.1888 9.45774 15.0833 9.35225C14.9778 9.24676 14.8347 9.1875 14.6855 9.1875C14.5364 9.1875 14.3933 9.24676 14.2878 9.35225C14.1823 9.45774 14.123 9.60082 14.123 9.75ZM9.62305 9.75V15.75C9.62305 15.8992 9.68231 16.0423 9.7878 16.1477C9.89329 16.2532 10.0364 16.3125 10.1855 16.3125C10.3347 16.3125 10.4778 16.2532 10.5833 16.1477C10.6888 16.0423 10.748 15.8992 10.748 15.75V9.75C10.748 9.60082 10.6888 9.45774 10.5833 9.35225C10.4778 9.24676 10.3347 9.1875 10.1855 9.1875C10.0364 9.1875 9.89329 9.24676 9.7878 9.35225C9.68231 9.45774 9.62305 9.60082 9.62305 9.75Z" fill="black"/>
</svg>
