<svg width="25" height="24" viewBox="0 0 25 24" fill="none" xmlns="http://www.w3.org/2000/svg">
<path d="M15.8527 3.54367L9.17532 10.221C6.38121 13.0222 4.26528 16.4256 2.98959 20.1708C2.92875 20.3479 2.91906 20.5386 2.96163 20.721C3.0042 20.9034 3.0973 21.0701 3.23027 21.202L3.23376 21.2055C3.32628 21.2987 3.43633 21.3727 3.55757 21.4233C3.67881 21.4738 3.80884 21.4999 3.94019 21.5C4.05072 21.4999 4.16049 21.4817 4.26511 21.4461C8.01026 20.1704 11.4137 18.0545 14.2148 15.2603L20.892 8.583C21.5603 7.91474 21.9357 7.0084 21.9357 6.06334C21.9357 5.11829 21.5603 4.21194 20.892 3.54369C20.5611 3.2128 20.1683 2.95032 19.736 2.77125C19.3037 2.59217 18.8403 2.5 18.3724 2.5C17.4273 2.5 16.521 2.87541 15.8527 3.54367ZM13.307 14.3527C10.7832 16.8699 7.74341 18.8097 4.39733 20.0384C5.62597 16.6923 7.56577 13.6525 10.083 11.1287L14.0607 7.15099L17.2847 10.375L13.307 14.3527ZM19.9844 7.67535L18.1923 9.46734L14.9683 6.24334L16.7604 4.45131C16.9719 4.23912 17.2233 4.07071 17.5 3.95574C17.7767 3.84076 18.0734 3.78147 18.3731 3.78126C18.6727 3.78104 18.9695 3.8399 19.2464 3.95448C19.5233 4.06905 19.7748 4.23709 19.9867 4.44898C20.1986 4.66087 20.3667 4.91246 20.4812 5.18935C20.5958 5.46624 20.6547 5.763 20.6544 6.06266C20.6542 6.36231 20.5949 6.65899 20.4799 6.93571C20.365 7.21243 20.1966 7.46377 19.9844 7.67535Z" fill="black"/>
</svg>
