<svg width="25" height="24" viewBox="0 0 25 24" fill="none" xmlns="http://www.w3.org/2000/svg">
<path fill-rule="evenodd" clip-rule="evenodd" d="M12.9355 24.001C19.563 24.001 24.9355 18.6284 24.9355 12.001C24.9355 5.37356 19.563 0.000976562 12.9355 0.000976562C6.30813 0.000976562 0.935547 5.37356 0.935547 12.001C0.935547 18.6284 6.30813 24.001 12.9355 24.001ZM17.6787 7.25076C18.1023 7.67441 18.1023 8.36128 17.6787 8.78493L14.4681 11.9955L17.6787 15.2061C18.1023 15.6298 18.1023 16.3166 17.6787 16.7403C17.255 17.1639 16.5682 17.1639 16.1445 16.7403L12.9339 13.5297L9.72333 16.7403C9.29968 17.1639 8.61281 17.1639 8.18916 16.7403C7.76551 16.3166 7.76551 15.6298 8.18916 15.2061L11.3998 11.9955L8.18916 8.78493C7.76551 8.36128 7.76551 7.67441 8.18916 7.25076C8.61281 6.82711 9.29968 6.82711 9.72333 7.25076L12.9339 10.4614L16.1445 7.25076C16.5682 6.82712 17.255 6.82712 17.6787 7.25076Z" fill="#787878"/>
</svg>
