<svg width="25" height="25" viewBox="0 0 25 25" fill="none" xmlns="http://www.w3.org/2000/svg">
<path fill-rule="evenodd" clip-rule="evenodd" d="M16.7832 10.73C16.7832 14.3202 13.873 17.2305 10.2832 17.2305C6.69345 17.2305 3.7832 14.3202 3.7832 10.73C3.7832 7.13978 6.69345 4.22949 10.2832 4.22949C13.873 4.22949 16.7832 7.13978 16.7832 10.73ZM15.3847 16.893C14 18.0407 12.2222 18.7305 10.2832 18.7305C5.86493 18.7305 2.2832 15.1486 2.2832 10.73C2.2832 6.31145 5.86493 2.72949 10.2832 2.72949C14.7015 2.72949 18.2832 6.31145 18.2832 10.73C18.2832 12.6693 17.5932 14.4475 16.4454 15.8324L22.4573 21.8443L21.3967 22.905L15.3847 16.893Z" fill="black"/>
</svg>
