<svg width="11" height="18" viewBox="0 0 11 18" fill="none" xmlns="http://www.w3.org/2000/svg">
<path d="M2.25972 0.73402C2.04446 0.523197 1.77048 0.408203 1.44759 0.408203C0.801794 0.408203 0.283203 0.906513 0.283203 1.53898C0.283203 1.85522 0.42019 2.1427 0.645239 2.36311L7.49455 8.91779L0.645239 15.4533C0.42019 15.6737 0.283203 15.9708 0.283203 16.2774C0.283203 16.9099 0.801794 17.4082 1.44759 17.4082C1.77048 17.4082 2.04446 17.2932 2.25972 17.0824L9.87224 9.79941C10.1462 9.55026 10.2734 9.2436 10.2832 8.9082C10.2832 8.5728 10.1462 8.28532 9.87224 8.02658L2.25972 0.73402Z" fill="#00C596"/>
</svg>
