<svg width="41" height="41" viewBox="0 0 41 41" fill="none" xmlns="http://www.w3.org/2000/svg">
<circle cx="20.2168" cy="20.7285" r="20" fill="#999999"/>
<path d="M20.2174 24.3089C22.195 24.3089 23.7981 22.7057 23.7981 20.7282C23.7981 18.7506 22.195 17.1475 20.2174 17.1475C18.2399 17.1475 16.6367 18.7506 16.6367 20.7282C16.6367 22.7057 18.2399 24.3089 20.2174 24.3089Z" fill="white"/>
<path d="M16.8601 9.53906L14.8124 11.777H11.2653C10.0344 11.777 9.02734 12.7841 9.02734 14.0149V27.4426C9.02734 28.6734 10.0344 29.6805 11.2653 29.6805H29.1688C30.3996 29.6805 31.4067 28.6734 31.4067 27.4426V14.0149C31.4067 12.7841 30.3996 11.777 29.1688 11.777H25.6216L23.5739 9.53906H16.8601ZM20.217 26.3236C17.1287 26.3236 14.6222 23.8171 14.6222 20.7287C14.6222 17.6404 17.1287 15.1339 20.217 15.1339C23.3054 15.1339 25.8119 17.6404 25.8119 20.7287C25.8119 23.8171 23.3054 26.3236 20.217 26.3236Z" fill="white"/>
</svg>
