<svg width="101" height="101" viewBox="0 0 101 101" fill="none" xmlns="http://www.w3.org/2000/svg">
<rect x="0.606445" y="0.729492" width="100" height="100" rx="16" fill="#E0E0E0"/>
<path d="M75.6064 59.4795C75.6064 57.4904 74.8163 55.5827 73.4097 54.1762C72.0032 52.7697 70.0956 51.9795 68.1064 51.9795H33.1064C31.1173 51.9795 29.2097 52.7697 27.8031 54.1762C26.3966 55.5827 25.6064 57.4904 25.6064 59.4795V61.9795C25.6064 71.8345 34.9064 81.9795 50.6064 81.9795C66.3064 81.9795 75.6064 71.8345 75.6064 61.9795V59.4795ZM64.3564 33.2295C64.3564 29.5828 62.9078 26.0854 60.3292 23.5068C57.7505 20.9281 54.2532 19.4795 50.6064 19.4795C46.9597 19.4795 38.1583 20.4905 37.7876 20.9494C37.184 21.6962 36.8564 29.5828 36.8564 33.2295C36.8564 36.8762 38.3051 40.3736 40.8837 42.9522C43.4624 45.5308 48.5425 46.6426 50.6064 46.9795C56.6366 47.9637 61.8174 50.124 61.7114 49.2539C61.1376 44.5447 64.3564 40.3946 64.3564 33.2295Z" fill="white"/>
</svg>
