<svg width="11" height="18" viewBox="0 0 11 18" fill="none" xmlns="http://www.w3.org/2000/svg">
<path d="M8.30669 17.0824C8.52195 17.2932 8.79592 17.4082 9.11882 17.4082C9.76461 17.4082 10.2832 16.9099 10.2832 16.2774C10.2832 15.9612 10.1462 15.6737 9.92117 15.4533L3.07185 8.89862L9.92117 2.36311C10.1462 2.1427 10.2832 1.84563 10.2832 1.53898C10.2832 0.906512 9.76461 0.408203 9.11882 0.408203C8.79592 0.408203 8.52195 0.523197 8.30669 0.73402L0.694162 8.017C0.420189 8.26615 0.292988 8.5728 0.283203 8.9082C0.283203 9.2436 0.420189 9.53109 0.694162 9.78983L8.30669 17.0824Z" fill="#00C596"/>
</svg>
