<svg width="121" height="121" viewBox="0 0 121 121" fill="none" xmlns="http://www.w3.org/2000/svg">
<rect x="10.416" y="10.5371" width="100" height="100" rx="16" fill="#E0E0E0"/>
<path d="M42.2627 83.1703C40.607 83.1703 39.1902 82.5594 38.0122 81.3377C36.8322 80.1139 36.2422 78.6434 36.2422 76.9264V48.8288C36.2422 47.8402 36.4559 46.9036 36.8834 46.0191C37.3088 45.1345 37.8978 44.4061 38.6504 43.8337L56.7118 29.7849C57.7654 28.9524 58.9694 28.5361 60.3241 28.5361C61.6787 28.5361 62.8828 28.9524 63.9363 29.7849L81.9977 43.8337C82.7503 44.4061 83.3403 45.1345 83.7677 46.0191C84.1932 46.9036 84.4059 47.8402 84.4059 48.8288V52.8874C83.4527 52.5752 82.4743 52.341 81.4709 52.1849C80.4675 52.0288 79.439 51.9508 78.3855 51.9508V48.8288L60.3241 34.78L42.2627 48.8288V76.9264H57.5396C57.6901 78.0191 57.9159 79.0857 58.2169 80.1264C58.5179 81.167 58.8942 82.1817 59.3457 83.1703H42.2627Z" fill="white"/>
<path d="M68.5216 88.3662V71.363M68.5216 72.4257V78.8019M68.5216 72.4257C68.5216 70.1709 67.658 68.0085 66.1206 66.4141C64.5833 64.8198 62.4983 63.9241 60.3242 63.9241M68.5216 72.4257H74.6697C76.8437 72.4257 78.9288 71.53 80.4661 69.9356C82.0034 68.3413 82.867 66.1788 82.867 63.9241V57.5479H76.719C74.5449 57.5479 72.4599 58.4436 70.9226 60.0379C69.3853 61.6323 68.5216 63.7947 68.5216 66.0495V72.4257ZM68.5216 72.4257L76.719 63.9241" stroke="white" stroke-width="2.5" stroke-linecap="round" stroke-linejoin="round"/>
<circle cx="100.416" cy="100.537" r="20" fill="#999999"/>
<path d="M100.416 104.117C102.393 104.117 103.996 102.514 103.996 100.537C103.996 98.5592 102.393 96.9561 100.416 96.9561C98.4381 96.9561 96.835 98.5592 96.835 100.537C96.835 102.514 98.4381 104.117 100.416 104.117Z" fill="white"/>
<path d="M97.0589 89.3477L95.0111 91.5856H91.464C90.2331 91.5856 89.2261 92.5927 89.2261 93.8235V107.251C89.2261 108.482 90.2331 109.489 91.464 109.489H109.368C110.598 109.489 111.605 108.482 111.605 107.251V93.8235C111.605 92.5927 110.598 91.5856 109.368 91.5856H105.82L103.773 89.3477H97.0589ZM100.416 106.132C97.3274 106.132 94.8209 103.626 94.8209 100.537C94.8209 97.449 97.3274 94.9425 100.416 94.9425C103.504 94.9425 106.011 97.449 106.011 100.537C106.011 103.626 103.504 106.132 100.416 106.132Z" fill="white"/>
</svg>
