<svg width="101" height="101" viewBox="0 0 101 101" fill="none" xmlns="http://www.w3.org/2000/svg">
<rect x="0.526367" y="0.935547" width="100" height="100" rx="16" fill="#E0E0E0"/>
<path d="M32.373 73.5687C30.7174 73.5687 29.3006 72.9579 28.1226 71.7361C26.9425 70.5123 26.3525 69.0419 26.3525 67.3248V39.2273C26.3525 38.2386 26.5663 37.302 26.9937 36.4175C27.4192 35.5329 28.0082 34.8045 28.7607 34.2321L46.8221 20.1834C47.8757 19.3508 49.0798 18.9346 50.4344 18.9346C51.789 18.9346 52.9931 19.3508 54.0467 20.1834L72.1081 34.2321C72.8606 34.8045 73.4506 35.5329 73.8781 36.4175C74.3035 37.302 74.5163 38.2386 74.5163 39.2273V43.2858C73.563 42.9736 72.5847 42.7394 71.5813 42.5833C70.5779 42.4273 69.5494 42.3492 68.4958 42.3492V39.2273L50.4344 25.1785L32.373 39.2273V67.3248H47.6499C47.8004 68.4175 48.0262 69.4842 48.3272 70.5248C48.6283 71.5655 49.0045 72.5801 49.4561 73.5687H32.373Z" fill="white"/>
<path d="M58.632 78.7646V61.7614M58.632 62.8241V69.2003M58.632 62.8241C58.632 60.5693 57.7683 58.4069 56.231 56.8126C54.6937 55.2182 52.6087 54.3225 50.4346 54.3225M58.632 62.8241H64.78C66.9541 62.8241 69.0391 61.9284 70.5764 60.3341C72.1137 58.7397 72.9774 56.5773 72.9774 54.3225V47.9463H66.8293C64.6553 47.9463 62.5702 48.842 61.0329 50.4364C59.4956 52.0307 58.632 54.1931 58.632 56.4479V62.8241ZM58.632 62.8241L66.8293 54.3225" stroke="white" stroke-width="2.5" stroke-linecap="round" stroke-linejoin="round"/>
</svg>
