<svg width="330" height="209" viewBox="0 0 330 209" fill="none" xmlns="http://www.w3.org/2000/svg">
<rect width="330" height="208" rx="16" fill="#F4F4F4"/>
<path d="M134.639 208.115L134.64 112.893C134.64 112.625 134.747 112.369 134.937 112.181L171.075 76.5318C171.394 76.2173 171.883 76.1531 172.273 76.3747L194.858 89.2366C195.17 89.4144 195.363 89.7461 195.363 90.1055V132.136C195.363 132.552 195.105 132.925 194.717 133.072L165.001 144.321L161.206 145.757L157.411 147.194L154.97 148.118C154.315 148.366 153.616 147.883 153.616 147.183V143.24" stroke="#C8C8C8" stroke-width="2"/>
<path d="M141.734 124.197C139.448 122.342 138.076 118.078 139.448 117.616C142.152 120.002 148.286 119.98 150.817 120.951C157.678 123.303 156.808 128.047 154.992 130.432C152.706 130.085 146.854 128.354 141.734 124.197Z" fill="#C8C8C8" stroke="#C8C8C8"/>
<path d="M153.59 143.687C153.591 140.034 153.73 137.582 158.368 132.813M158.368 132.813C164.167 126.852 169.757 126.381 167.894 120.577C169.343 120.577 171.993 121.392 171 124.655C170.221 127.211 167.894 128.733 163.131 130.773C159.439 132.285 158.418 132.763 158.368 132.813Z" stroke="#C8C8C8" stroke-width="2"/>
</svg>
